<svg width="20" height="20" viewBox="0 0 20 20" fill="none" xmlns="http://www.w3.org/2000/svg">
<path d="M4.51438 8.96889C4.58927 11.9683 6.99434 14.5931 9.99467 14.5931V14.5931V14.5931C13.0421 14.5931 15.3899 12.0106 15.4735 8.96434C15.4837 8.58971 15.4892 8.21234 15.4892 7.83224C15.4892 6.03586 15.3798 4.27969 15.1941 2.6166C15.1265 2.01105 14.6705 1.52102 14.0695 1.42058C12.7525 1.20046 11.4008 1.07142 9.99467 1.07142C8.58537 1.07142 7.20928 1.19292 5.89797 1.41714C5.30739 1.51812 4.86093 2.00012 4.79239 2.59533C4.60057 4.26101 4.50016 6.02923 4.50016 7.83224C4.50016 8.21398 4.50499 8.59284 4.51438 8.96889Z" fill="#F5F4F4"/>
<path d="M4.51438 8.96889C4.58927 11.9683 6.99434 14.5931 9.99467 14.5931V14.5931V14.5931C13.0421 14.5931 15.3899 12.0106 15.4735 8.96434C15.4837 8.58971 15.4892 8.21234 15.4892 7.83224C15.4892 6.03586 15.3798 4.27969 15.1941 2.6166C15.1265 2.01105 14.6705 1.52102 14.0695 1.42058C12.7525 1.20046 11.4008 1.07142 9.99467 1.07142C8.58537 1.07142 7.20928 1.19292 5.89797 1.41714C5.30739 1.51812 4.86093 2.00012 4.79239 2.59533C4.60057 4.26101 4.50016 6.02923 4.50016 7.83224C4.50016 8.21398 4.50499 8.59284 4.51438 8.96889Z" stroke="#938A8A" stroke-width="2"/>
<path d="M9.99467 14.6038V18.9286" stroke="#938A8A" stroke-width="2" stroke-linecap="round" stroke-linejoin="round"/>
<path d="M6.5606 18.9286H13.4287" stroke="#938A8A" stroke-width="2" stroke-linecap="round" stroke-linejoin="round"/>
<path d="M15.1458 2.44506H17.4947C18.2837 2.44506 18.9232 3.08465 18.9232 3.87363V4.1259C18.9232 5.46326 18.4891 6.74585 17.7163 7.6915C17.1065 8.43766 16.3253 8.92582 15.4859 9.09858" stroke="#938A8A" stroke-width="2" stroke-linecap="round" stroke-linejoin="round"/>
<path d="M4.80602 2.44506H2.50541C1.71643 2.44506 1.07684 3.08465 1.07684 3.87363V4.1259C1.07684 5.46326 1.511 6.74585 2.28381 7.6915C2.89022 8.43354 3.66616 8.92042 4.50024 9.0957" stroke="#938A8A" stroke-width="2" stroke-linecap="round" stroke-linejoin="round"/>
</svg>
