<svg width="20" height="20" viewBox="0 0 20 20" fill="none" xmlns="http://www.w3.org/2000/svg">
<path d="M9.99996 18.9286C14.9311 18.9286 18.9285 14.9311 18.9285 10C18.9285 5.06889 14.9311 1.07144 9.99996 1.07144C5.06884 1.07144 1.07139 5.06889 1.07139 10C1.07139 14.9311 5.06884 18.9286 9.99996 18.9286Z" fill="#F5F4F4" stroke="#938A8A" stroke-width="2" stroke-linecap="round" stroke-linejoin="round"/>
<path d="M10 10.0559C11.512 10.0559 12.7377 8.83025 12.7377 7.3183C12.7377 5.80635 11.512 4.58067 10 4.58067C8.48807 4.58067 7.26239 5.80635 7.26239 7.3183C7.26239 8.83025 8.48807 10.0559 10 10.0559Z" fill="white" stroke="#938A8A" stroke-width="2" stroke-linecap="round" stroke-linejoin="round"/>
<path d="M15.2918 17.1921C13.8109 18.2836 11.9807 18.9286 9.99996 18.9286C8.01917 18.9286 6.18903 18.2836 4.70812 17.1921C5.00305 16.0815 5.64096 15.0888 6.53493 14.3581C7.51282 13.5588 8.73697 13.1222 9.99996 13.1222C11.2629 13.1222 12.4871 13.5588 13.465 14.3581C14.359 15.0888 14.9969 16.0815 15.2918 17.1921Z" fill="white" stroke="#938A8A" stroke-width="2" stroke-linecap="round" stroke-linejoin="round"/>
</svg>
