<svg width="20" height="20" viewBox="0 0 20 20" fill="none" xmlns="http://www.w3.org/2000/svg">
<path d="M2.1429 5.00003C1.15503 7.46971 1.16338 14.2978 1.33759 17.6421C1.37577 18.375 1.98753 18.9286 2.72146 18.9286H11.5643C12.2982 18.9286 12.91 18.375 12.9481 17.6421C13.1223 14.2978 13.1307 7.46971 12.1428 5.00003C11.5603 4.22337 10.1228 2.62331 8.37254 1.43952C7.62762 0.935685 6.65811 0.935685 5.91319 1.43952C4.16293 2.62331 2.7254 4.22337 2.1429 5.00003Z" fill="#F5F4F4" stroke="#938A8A" stroke-width="1.7316" stroke-linecap="round" stroke-linejoin="round"/>
<path d="M12.8555 8.92857H16.082C17.2186 8.92857 18.1965 9.4831 18.4076 10.6C18.7315 12.3134 18.9423 15.2198 18.5714 18.9286H11.5643C12.2982 18.9286 12.91 18.375 12.9481 17.6421C13.0605 15.4854 13.1038 11.8797 12.8555 8.92857Z" fill="#F5F4F4" stroke="#938A8A" stroke-width="1.7316" stroke-linecap="round" stroke-linejoin="round"/>
<path d="M6.42854 11.4285H7.85711" stroke="#938A8A" stroke-width="1.7316" stroke-linecap="round" stroke-linejoin="round"/>
<path d="M7.14284 18.9324V15.7143" stroke="#938A8A" stroke-width="1.7316" stroke-linecap="round" stroke-linejoin="round"/>
<path d="M6.42854 7.14286H7.85711" stroke="#938A8A" stroke-width="1.7316" stroke-linecap="round" stroke-linejoin="round"/>
</svg>
