<svg width="18" height="18" viewBox="0 0 18 18" fill="none" xmlns="http://www.w3.org/2000/svg">
<path d="M10.6611 6.0411C10.7288 6.67435 11.2381 7.18368 11.8711 7.25423C12.3412 7.30663 12.8239 7.35164 13.3161 7.35164C13.8082 7.35164 14.2909 7.30663 14.761 7.25423C15.394 7.18368 15.9033 6.67435 15.9711 6.0411C16.0211 5.57362 16.0633 5.09368 16.0633 4.60438C16.0633 4.11508 16.0211 3.63514 15.9711 3.16767C15.9033 2.53441 15.394 2.02509 14.761 1.95454C14.2909 1.90214 13.8082 1.85713 13.3161 1.85713C12.8239 1.85713 12.3412 1.90214 11.8711 1.95454C11.2381 2.02509 10.7288 2.53441 10.6611 3.16767C10.611 3.63514 10.5688 4.11508 10.5688 4.60438C10.5688 5.09368 10.611 5.57362 10.6611 6.0411Z" fill="#F5F4F4" stroke="#938A8A" stroke-width="2"/>
<path d="M2.02887 6.0411C2.09662 6.67436 2.60594 7.18368 3.23888 7.25423C3.70902 7.30663 4.19172 7.35164 4.68387 7.35164C5.17602 7.35164 5.65873 7.30663 6.12886 7.25423C6.7618 7.18368 7.27113 6.67436 7.33888 6.0411C7.38889 5.57363 7.43113 5.09368 7.43113 4.60439C7.43113 4.11509 7.38889 3.63515 7.33888 3.16767C7.27113 2.53442 6.7618 2.02509 6.12886 1.95454C5.65873 1.90214 5.17602 1.85713 4.68387 1.85713C4.19172 1.85713 3.70902 1.90214 3.23888 1.95454C2.60594 2.02509 2.09662 2.53442 2.02887 3.16767C1.97885 3.63515 1.93662 4.11509 1.93662 4.60439C1.93662 5.09369 1.97885 5.57363 2.02887 6.0411Z" fill="#F5F4F4" stroke="#938A8A" stroke-width="2"/>
<path d="M2.02887 14.8323C2.09662 15.4656 2.60594 15.9749 3.23888 16.0454C3.70902 16.0978 4.19172 16.1428 4.68387 16.1428C5.17602 16.1428 5.65873 16.0978 6.12886 16.0454C6.7618 15.9749 7.27113 15.4656 7.33888 14.8323C7.38889 14.3648 7.43113 13.8849 7.43113 13.3956C7.43113 12.9063 7.38889 12.4263 7.33888 11.9589C7.27113 11.3256 6.7618 10.8163 6.12886 10.7457C5.65873 10.6933 5.17602 10.6483 4.68387 10.6483C4.19172 10.6483 3.70902 10.6933 3.23888 10.7457C2.60594 10.8163 2.09662 11.3256 2.02887 11.9589C1.97885 12.4263 1.93662 12.9063 1.93662 13.3956C1.93662 13.8849 1.97885 14.3648 2.02887 14.8323Z" fill="#F5F4F4" stroke="#938A8A" stroke-width="2"/>
<path d="M10.6611 14.8323C10.7288 15.4656 11.2381 15.9749 11.8711 16.0454C12.3412 16.0978 12.8239 16.1428 13.3161 16.1428C13.8082 16.1428 14.2909 16.0978 14.761 16.0454C15.394 15.9749 15.9033 15.4656 15.9711 14.8323C16.0211 14.3648 16.0633 13.8849 16.0633 13.3956C16.0633 12.9063 16.0211 12.4263 15.9711 11.9589C15.9033 11.3256 15.394 10.8163 14.761 10.7457C14.2909 10.6933 13.8082 10.6483 13.3161 10.6483C12.8239 10.6483 12.3412 10.6933 11.8711 10.7457C11.2381 10.8163 10.7288 11.3256 10.6611 11.9589C10.611 12.4263 10.5688 12.9063 10.5688 13.3956C10.5688 13.8849 10.611 14.3648 10.6611 14.8323Z" fill="#F5F4F4" stroke="#938A8A" stroke-width="2"/>
</svg>
