<svg width="32" height="32" viewBox="0 0 32 32" fill="none" xmlns="http://www.w3.org/2000/svg">
<path d="M8.37746 15.7232L7.52439 15.2014H7.52439L8.37746 15.7232ZM23.5616 15.5841L24.4277 15.0842V15.0842L23.5616 15.5841ZM22.059 20.9408L21.7886 19.9781L21.7886 19.9781L22.059 20.9408ZM9.84957 20.8759L10.1306 19.9162H10.1306L9.84957 20.8759ZM13.6547 23.5992C13.2566 23.2164 12.6235 23.2288 12.2407 23.6269C11.8579 24.025 11.8703 24.658 12.2684 25.0408L13.6547 23.5992ZM19.8665 25.0408C20.2646 24.658 20.277 24.025 19.8942 23.6269C19.5113 23.2288 18.8783 23.2164 18.4802 23.5992L19.8665 25.0408ZM7.20003 18.3272L8.20001 18.3209V18.3209L7.20003 18.3272ZM7.83118 19.9206L7.0957 20.5981H7.0957L7.83118 19.9206ZM24.7994 18.4274L23.7998 18.3997V18.3997L24.7994 18.4274ZM24.1436 19.9976L23.4187 19.3088L23.4187 19.3088L24.1436 19.9976ZM21.7827 9.57906L21.5552 8.60529L21.7827 9.57906ZM20.891 8.42904L20.0054 7.96466L20.891 8.42904ZM23.6465 11.8569C23.5674 11.3103 23.0602 10.9313 22.5136 11.0103C21.967 11.0894 21.588 11.5965 21.6671 12.1431L23.6465 11.8569ZM18.3957 7.88822C18.9009 8.11148 19.4914 7.88297 19.7146 7.37782C19.9379 6.87268 19.7094 6.28218 19.2043 6.05892L18.3957 7.88822ZM9.23053 16.245C9.53466 15.7478 9.81911 15.2322 10.0305 14.7442C10.2317 14.2798 10.4119 13.7405 10.4119 13.2267H8.41192C8.41192 13.3222 8.36586 13.5555 8.19532 13.9492C8.03496 14.3193 7.80217 14.7473 7.52439 15.2014L9.23053 16.245ZM10.4119 13.2267V12.9235H8.41192V13.2267H10.4119ZM21.723 12.9234V13.2267H23.723V12.9234H21.723ZM21.723 13.2267C21.723 14.1836 22.2002 15.2258 22.6954 16.0839L24.4277 15.0842C23.9539 14.2633 23.723 13.6174 23.723 13.2267H21.723ZM21.7886 19.9781C20.2464 20.4113 18.3087 20.76 16.0674 20.76V22.76C18.5167 22.76 20.6371 22.3789 22.3294 21.9036L21.7886 19.9781ZM16.0674 20.76C13.7203 20.76 11.7062 20.3776 10.1306 19.9162L9.56856 21.8356C11.2983 22.3421 13.5026 22.76 16.0674 22.76V20.76ZM12.9615 24.32C12.2684 25.0408 12.2686 25.0411 12.2689 25.0413C12.269 25.0414 12.2692 25.0416 12.2694 25.0418C12.2698 25.0421 12.2701 25.0425 12.2705 25.0429C12.2713 25.0436 12.2722 25.0445 12.2732 25.0454C12.2751 25.0472 12.2774 25.0494 12.28 25.0518C12.2852 25.0567 12.2917 25.0628 12.2996 25.0701C12.3153 25.0846 12.3363 25.1036 12.3624 25.1265C12.4145 25.1723 12.4873 25.2339 12.5789 25.3059C12.7614 25.4495 13.0229 25.6379 13.3492 25.8262C13.9925 26.1974 14.9437 26.6 16.0674 26.6V24.6C15.4164 24.6 14.8146 24.3627 14.3487 24.0939C14.1204 23.9621 13.9381 23.8305 13.8156 23.7341C13.7547 23.6862 13.7096 23.6478 13.682 23.6236C13.6682 23.6115 13.6589 23.603 13.6542 23.5987C13.6519 23.5966 13.6508 23.5955 13.6508 23.5956C13.6509 23.5956 13.6512 23.5959 13.6518 23.5965C13.6522 23.5968 13.6525 23.5972 13.653 23.5976C13.6533 23.5979 13.6535 23.5981 13.6538 23.5984C13.6539 23.5985 13.6541 23.5987 13.6542 23.5988C13.6544 23.599 13.6547 23.5992 12.9615 24.32ZM16.0674 26.6C17.1912 26.6 18.1424 26.1974 18.7857 25.8262C19.112 25.6379 19.3735 25.4495 19.556 25.3059C19.6476 25.2339 19.7203 25.1723 19.7725 25.1265C19.7986 25.1036 19.8196 25.0846 19.8353 25.0701C19.8432 25.0628 19.8497 25.0567 19.8549 25.0518C19.8575 25.0494 19.8598 25.0472 19.8617 25.0454C19.8627 25.0445 19.8636 25.0436 19.8643 25.0429C19.8647 25.0425 19.8651 25.0421 19.8655 25.0418C19.8657 25.0416 19.8659 25.0414 19.866 25.0413C19.8662 25.0411 19.8665 25.0408 19.1733 24.32C18.4802 23.5992 18.4804 23.599 18.4807 23.5988C18.4807 23.5987 18.481 23.5985 18.4811 23.5984C18.4814 23.5981 18.4816 23.5979 18.4819 23.5976C18.4823 23.5972 18.4827 23.5968 18.483 23.5965C18.4837 23.5959 18.484 23.5956 18.484 23.5956C18.4841 23.5955 18.483 23.5966 18.4806 23.5987C18.476 23.603 18.4667 23.6115 18.4529 23.6236C18.4253 23.6478 18.3802 23.6862 18.3193 23.7341C18.1967 23.8305 18.0145 23.9621 17.7862 24.0939C17.3203 24.3627 16.7185 24.6 16.0674 24.6V26.6ZM7.52439 15.2014C7.1409 15.8284 6.81443 16.36 6.59156 16.8206C6.36076 17.2977 6.1966 17.7846 6.20005 18.3335L8.20001 18.3209C8.19924 18.1977 8.2299 18.0266 8.39194 17.6916C8.5619 17.3403 8.82625 16.906 9.23053 16.245L7.52439 15.2014ZM10.1306 19.9162C9.02529 19.5926 8.80356 19.5002 8.56665 19.2431L7.0957 20.5981C7.77803 21.3388 8.59548 21.5507 9.56856 21.8356L10.1306 19.9162ZM6.20005 18.3335C6.20503 19.1261 6.55871 20.0153 7.0957 20.5981L8.56665 19.2431C8.36346 19.0225 8.20183 18.6107 8.20001 18.3209L6.20005 18.3335ZM22.6954 16.0839C23.1235 16.8256 23.4105 17.3249 23.5945 17.7211C23.7754 18.1109 23.8028 18.2929 23.7998 18.3997L25.799 18.4552C25.8146 17.8956 25.6418 17.3815 25.4086 16.8791C25.1783 16.3831 24.8372 15.7938 24.4277 15.0842L22.6954 16.0839ZM22.3294 21.9036C23.3359 21.6209 24.1786 21.4125 24.8685 20.6864L23.4187 19.3088C23.1814 19.5585 22.9434 19.6537 21.7886 19.9781L22.3294 21.9036ZM23.7998 18.3997C23.7912 18.7085 23.6388 19.0772 23.4187 19.3088L24.8685 20.6864C25.425 20.1008 25.7766 19.2627 25.799 18.4552L23.7998 18.3997ZM16.0674 5.40002C11.8583 5.40002 8.41192 8.7507 8.41192 12.9235H10.4119C10.4119 9.89266 12.9251 7.40002 16.0674 7.40002V5.40002ZM21.6 8.60002C21.7105 8.60002 21.8 8.68957 21.8 8.80002H19.8C19.8 9.79414 20.6059 10.6 21.6 10.6V8.60002ZM21.6 9.00002C21.4895 9.00002 21.4 8.91048 21.4 8.80002H23.4C23.4 7.80591 22.5941 7.00002 21.6 7.00002V9.00002ZM21.4 8.80002C21.4 8.704 21.4667 8.62597 21.5552 8.60529L22.0102 10.5528C22.8063 10.3668 23.4 9.65398 23.4 8.80002H21.4ZM21.5552 8.60529C21.5706 8.6017 21.5857 8.60002 21.6 8.60002V10.6C21.74 10.6 21.8775 10.5838 22.0102 10.5528L21.5552 8.60529ZM21.8 8.80002C21.8 8.83173 21.7918 8.86447 21.7767 8.89342L20.0054 7.96466C19.8739 8.21538 19.8 8.50054 19.8 8.80002H21.8ZM21.7767 8.89342C21.7446 8.95466 21.6784 9.00002 21.6 9.00002V7.00002C20.9057 7.00002 20.305 7.39336 20.0054 7.96466L21.7767 8.89342ZM21.6671 12.1431C21.7039 12.3976 21.723 12.658 21.723 12.9234H23.723C23.723 12.5619 23.6969 12.2058 23.6465 11.8569L21.6671 12.1431ZM16.0674 7.40002C16.8998 7.40002 17.6873 7.57511 18.3957 7.88822L19.2043 6.05892C18.2453 5.63509 17.1828 5.40002 16.0674 5.40002V7.40002Z" fill="#CDA1F7"/>
</svg>
