<svg width="26" height="17" viewBox="0 0 26 17" fill="none" xmlns="http://www.w3.org/2000/svg">
<path d="M6.75 4.25H0.5V1.75H6.75V4.25ZM6.75 8H0.5V10.5H6.75V8ZM23.7375 16.75L18.95 11.9625C17.95 12.6125 16.775 13 15.5 13C12.05 13 9.25 10.2 9.25 6.75C9.25 3.3 12.05 0.5 15.5 0.5C18.95 0.5 21.75 3.3 21.75 6.75C21.75 8.025 21.3625 9.2 20.7125 10.1875L25.5 14.9875L23.7375 16.75ZM19.25 6.75C19.25 4.6875 17.5625 3 15.5 3C13.4375 3 11.75 4.6875 11.75 6.75C11.75 8.8125 13.4375 10.5 15.5 10.5C17.5625 10.5 19.25 8.8125 19.25 6.75ZM0.5 16.75H13V14.25H0.5V16.75Z" fill="#540D96"/>
</svg>
