<svg width="28" height="26" viewBox="0 0 28 26" fill="none" xmlns="http://www.w3.org/2000/svg">
<path d="M9.9558 19.6666L2 19.6666" stroke="#938A8A" stroke-width="3" stroke-linecap="round"/>
<path d="M26 6.33331H18" stroke="#938A8A" stroke-width="3" stroke-linecap="round"/>
<path d="M2.01333 6.33331L2 6.33331" stroke="#938A8A" stroke-width="3" stroke-linecap="round"/>
<path d="M26.0133 19.6666L26 19.6666" stroke="#938A8A" stroke-width="3" stroke-linecap="round"/>
<path d="M17.9116 15.6666C20.1085 15.6666 21.8895 17.4575 21.8895 19.6666C21.8895 21.8758 20.1085 23.6666 17.9116 23.6666C15.7147 23.6666 13.9337 21.8758 13.9337 19.6666C13.9337 17.4575 15.7147 15.6666 17.9116 15.6666Z" stroke="#938A8A" stroke-width="3"/>
<path d="M9.95581 2.33331C12.1527 2.33331 13.9337 4.12417 13.9337 6.33331C13.9337 8.54245 12.1527 10.3333 9.95581 10.3333C7.75887 10.3333 5.97791 8.54245 5.97791 6.33331C5.97791 4.12417 7.75887 2.33331 9.95581 2.33331Z" stroke="#938A8A" stroke-width="3"/>
</svg>
