<svg width="18" height="17" viewBox="0 0 18 17" fill="none" xmlns="http://www.w3.org/2000/svg">
<path d="M12.0928 0.500679C11.0076 0.484976 9.87596 0.799549 8.99898 1.68277C8.11519 0.801268 6.97275 0.500614 5.91691 0.500614C3.29332 0.500614 0.666763 2.67432 0.666763 5.75059C0.666763 8.71667 2.56388 11.186 4.44024 12.8648C5.38964 13.7142 6.36338 14.3886 7.15417 14.853C7.54932 15.085 7.90548 15.2686 8.19609 15.3965C8.34089 15.4602 8.47677 15.5133 8.59779 15.5517C8.70308 15.5851 8.8515 15.6256 9.00034 15.6256C9.14919 15.6256 9.2976 15.5851 9.4029 15.5517C9.52392 15.5133 9.6598 15.4602 9.80459 15.3965C10.0952 15.2686 10.4514 15.085 10.8465 14.853C11.6373 14.3886 12.611 13.7142 13.5604 12.8648C15.4368 11.186 17.3339 8.71667 17.3339 5.75059C17.3339 2.66703 14.7012 0.538421 12.0928 0.500679Z" stroke="#554E4E" stroke-linecap="round" stroke-linejoin="round"/>
</svg>
